<svg width="70" height="49" viewBox="0 0 70 49" fill="none" xmlns="http://www.w3.org/2000/svg">
<path d="M68.4335 5.05526L40.103 8.17954C37.9237 11.3038 37.9237 15.2481 40.103 18.5032L68.4335 15.1073C64.756 12.9339 64.8922 6.957 68.4335 5.05526Z" fill="white"/>
<path d="M57.5371 41.4599L68.4335 40.1607C63.5301 36.5697 62.8491 28.2836 68.4335 24.9754L40.103 28.2836C36.4778 34.3707 36.3748 37.6773 40.103 43.3616L50.5907 42.4108V33.2365L57.5371 32.5259V41.4599Z" fill="white"/>
<path d="M68.4335 15.1073L40.103 18.5032C38.1961 21.22 38.0599 25.431 40.103 28.2836L68.4335 24.9754C64.756 22.8501 64.6198 17.1449 68.4335 15.1073Z" fill="white"/>
<path d="M8.23115 24.413C5.09847 28.2836 4.82606 35.8905 8.23115 39.7256L12.0449 40.1607C9.48652 34.044 9.3887 30.7011 12.8621 24.9754L8.23115 24.413Z" fill="#FDB892"/>
<path d="M50.5907 47.4368L54.2682 41.7611L57.5371 46.6217V41.4599V32.5259L50.5907 33.2365V42.4108V47.4368Z" fill="#FDB892"/>
<path d="M40.103 28.2836C38.0599 25.431 38.1961 21.22 40.103 18.5032L32.4755 17.5489C30.827 21.0177 30.8363 23.1917 31.5902 27.2498L33.7014 27.5062L40.103 28.2836Z" fill="#FDB892"/>
<path d="M27.436 26.7453L12.8621 24.9754C9.3887 30.7011 9.48652 34.044 12.0449 40.1607L29.479 42.1496C27.2205 36.0262 27.2713 32.7135 29.479 26.9934L27.436 26.7453Z" fill="#C2A4D6"/>
<path d="M40.103 43.3616C36.3748 37.6773 36.4778 34.3707 40.103 28.2836L33.7014 27.5062C31.3813 33.5186 31.5866 36.8211 33.7014 42.6313L40.103 43.3616Z" fill="#C2A4D6"/>
<path d="M3.19159 23.8009C-0.485898 26.9934 -0.485905 35.6188 3.19159 39.1506L8.23115 39.7256C4.82606 35.8905 5.09847 28.2836 8.23115 24.413L3.19159 23.8009Z" fill="#C2A4D6"/>
<path d="M33.7014 42.6313C31.5866 36.8211 31.3813 33.5186 33.7014 27.5062L31.5902 27.2498L29.479 26.9934C27.2713 32.7135 27.2205 36.0262 29.479 42.1496L33.7014 42.6313Z" fill="#FDB892"/>
<path fill-rule="evenodd" clip-rule="evenodd" d="M8.23115 24.413L3.19159 23.8009C1.01452 19.7881 0.979394 17.6155 3.19159 13.8847L9.86561 14.7198L14.0879 15.2481L28.2192 17.0163C26.8621 19.5767 26.3031 23.3662 27.436 26.7453L12.8621 24.9754L8.23115 24.413Z" fill="#FDB892"/>
<path d="M28.2192 17.0163C26.8621 19.5767 26.3031 23.3662 27.436 26.7453L29.479 26.9934L31.5902 27.2498C30.8363 23.1917 30.827 21.0177 32.4755 17.5489L28.2192 17.0163Z" fill="#C2A4D6"/>
<path d="M14.0879 15.2481C12.4535 13.8847 12.8398 7.87636 14.0879 5.11592L9.86561 4.61868C7.37685 8.88544 7.6532 11.0615 9.86561 14.7198L14.0879 15.2481Z" fill="#C2A4D6"/>
<path d="M9.86561 14.7198C7.6532 11.0615 7.37685 8.88544 9.86561 4.61868L3.19159 3.83272C1.20045 7.89488 1.06798 10.105 3.19159 13.8847L9.86561 14.7198Z" fill="#FDB892"/>
<path d="M68.4335 5.05526L31.3859 0.436768L3.19159 3.83272L9.86561 4.61868L14.0879 5.11592L40.103 8.17954L68.4335 5.05526Z" fill="#FDB892"/>
<path d="M40.103 8.17954C37.9237 11.3038 37.9237 15.2481 40.103 18.5032L32.4755 17.5489L28.2192 17.0163L14.0879 15.2481C12.4535 13.8847 12.8398 7.87636 14.0879 5.11592L40.103 8.17954Z" fill="#FDB892"/>
<path d="M68.4335 5.05526L40.103 8.17954M68.4335 5.05526C64.8922 6.957 64.756 12.9339 68.4335 15.1073M68.4335 5.05526L31.3859 0.436768L3.19159 3.83272M40.103 8.17954C37.9237 11.3038 37.9237 15.2481 40.103 18.5032M40.103 8.17954L14.0879 5.11592M40.103 18.5032L68.4335 15.1073M40.103 18.5032C38.1961 21.22 38.0599 25.431 40.103 28.2836M40.103 18.5032L32.4755 17.5489M68.4335 15.1073C64.6198 17.1449 64.756 22.8501 68.4335 24.9754M57.5371 41.4599L68.4335 40.1607C63.5301 36.5697 62.8491 28.2836 68.4335 24.9754M57.5371 41.4599V32.5259M57.5371 41.4599V46.6217M68.4335 24.9754L40.103 28.2836M40.103 28.2836C36.4778 34.3707 36.3748 37.6773 40.103 43.3616M40.103 28.2836L33.7014 27.5062M40.103 43.3616L50.5907 42.4108M40.103 43.3616L33.7014 42.6313M50.5907 42.4108V33.2365M50.5907 42.4108V47.4368M50.5907 33.2365L57.5371 32.5259M50.5907 33.2365V47.4368M50.5907 33.2365L48.5477 33.4454M57.5371 32.5259V46.6217M57.5371 32.5259L59.1716 32.3587M8.23115 24.413C5.09847 28.2836 4.82606 35.8905 8.23115 39.7256M8.23115 24.413L12.8621 24.9754M8.23115 24.413L3.19159 23.8009M8.23115 39.7256L12.0449 40.1607M8.23115 39.7256L3.19159 39.1506C-0.485905 35.6188 -0.485898 26.9934 3.19159 23.8009M12.0449 40.1607C9.48652 34.044 9.3887 30.7011 12.8621 24.9754M12.0449 40.1607L29.479 42.1496M12.8621 24.9754L27.436 26.7453M50.5907 47.4368L54.2682 41.7611L57.5371 46.6217M32.4755 17.5489C30.827 21.0177 30.8363 23.1917 31.5902 27.2498M32.4755 17.5489L28.2192 17.0163M31.5902 27.2498L33.7014 27.5062M31.5902 27.2498L29.479 26.9934M33.7014 27.5062C31.3813 33.5186 31.5866 36.8211 33.7014 42.6313M27.436 26.7453L29.479 26.9934M27.436 26.7453C26.3031 23.3662 26.8621 19.5767 28.2192 17.0163M29.479 42.1496C27.2205 36.0262 27.2713 32.7135 29.479 26.9934M29.479 42.1496L33.7014 42.6313M3.19159 23.8009C1.01452 19.7881 0.979394 17.6155 3.19159 13.8847M3.19159 13.8847L9.86561 14.7198M3.19159 13.8847C1.06798 10.105 1.20045 7.89487 3.19159 3.83272M9.86561 14.7198L14.0879 15.2481M9.86561 14.7198C7.6532 11.0615 7.37685 8.88544 9.86561 4.61868M14.0879 15.2481L28.2192 17.0163M14.0879 15.2481C12.4535 13.8847 12.8398 7.87636 14.0879 5.11592M14.0879 5.11592L9.86561 4.61868M9.86561 4.61868L3.19159 3.83272" stroke="#8272BA" stroke-width="0.867052"/>
</svg>
