<svg width="225" height="38" viewBox="0 0 225 38" fill="none" xmlns="http://www.w3.org/2000/svg">
<path d="M2.5 18.5801C31.5 20.0801 29.5 36.0801 2.5 32.5801V18.5801ZM2.5 18.5801C32 14.0801 26.5 2.08008 2.5 3.08008V18.5801ZM89.5 1.08008V22.5801M89.5 34.5801V22.5801M89.5 22.5801C102.276 22.7656 98.5 15.0801 105.5 13.0801M89.5 22.5801C97.7925 22.3833 100.378 26.2918 105.5 34.5801M69.5 13.0801C55 13.0801 57 34.5801 69.5 34.5801C82 34.5801 84 13.0801 69.5 13.0801ZM41.5 34.5801C56 34.5801 53.5 13.0801 41.5 13.0801C29.5 13.0801 27 34.5801 41.5 34.5801Z" stroke="#8272BA" stroke-width="5"/>
<path d="M114.5 35.5801V21.0801M114.5 21.0801V3.58005C139.5 -3.41992 142.5 26.0801 114.5 21.0801ZM143.5 11.0801C142.5 28.0801 138.5 40.0801 159.5 29.5801V11.0801V35.5801M171.5 0.0800781V35.5801M196.5 13.5801C196.5 13.5801 182 10.0801 182 17.5801C182 25.0801 195.5 22.0801 195.5 28.0801C195.5 34.0801 187.81 33.7684 179.5 32.0801M204.5 22.5801C204.5 7.58008 225.5 12.5801 221.5 22.5801H204.5ZM204.5 22.5801C204.5 33.5801 214.5 34.5801 223 32.0801" stroke="#F98C74" stroke-width="5"/>
</svg>
